<svg width="16" height="17" viewBox="0 0 16 17" fill="none" xmlns="http://www.w3.org/2000/svg">
<path fill-rule="evenodd" clip-rule="evenodd" d="M8 0.25C12.4112 0.25 16 3.8388 16 8.25C16 12.6612 12.4112 16.25 8 16.25C3.5888 16.25 0 12.6612 0 8.25C0 3.8388 3.5888 0.25 8 0.25ZM8 1.45C4.2504 1.45 1.2 4.5004 1.2 8.25C1.2 11.9996 4.2504 15.05 8 15.05C11.7496 15.05 14.8 11.9996 14.8 8.25C14.8 4.5004 11.7496 1.45 8 1.45ZM7.72896 4.32632C8.06096 4.32632 8.32896 4.59512 8.32896 4.92632V8.46392L11.053 10.0879C11.337 10.2583 11.4306 10.6263 11.261 10.9111C11.1482 11.0991 10.949 11.2039 10.745 11.2039C10.6402 11.2039 10.5346 11.1767 10.4378 11.1199L7.42176 9.32072C7.24096 9.21192 7.12896 9.01592 7.12896 8.80472V4.92632C7.12896 4.59512 7.39776 4.32632 7.72896 4.32632Z" fill="#38D0B7"/>
</svg>
