<svg width="18" height="16" viewBox="0 0 18 16" fill="none" xmlns="http://www.w3.org/2000/svg">
<path fill-rule="evenodd" clip-rule="evenodd" d="M14.6101 0.75C16.4788 0.75 17.9992 2.2553 17.9992 4.1047L18 6.27642C18 6.44219 17.9339 6.60293 17.8158 6.72014C17.6986 6.83819 17.5387 6.90433 17.3721 6.90433C16.7132 6.90433 16.1774 7.43009 16.1774 8.07642C16.1774 8.72274 16.7132 9.24851 17.3721 9.24851C17.7187 9.24851 18 9.52981 18 9.87642V12.0465C18 13.8959 16.4796 15.4012 14.611 15.4012H3.38902C1.52037 15.4012 0 13.8959 0 12.0465V9.87642C0 9.52981 0.281302 9.24851 0.627907 9.24851C1.28679 9.24851 1.8226 8.72274 1.8226 8.07642C1.8226 7.44851 1.30856 6.97465 0.627907 6.97465C0.461302 6.97465 0.301395 6.90851 0.184186 6.79047C0.0661395 6.67326 0 6.51251 0 6.34674L0.000837209 4.1047C0.000837209 2.2553 1.52121 0.75 3.38986 0.75H14.6101ZM14.6101 2.00581H11.1759L11.1764 3.61426C11.1764 3.96087 10.8951 4.24217 10.5485 4.24217C10.2019 4.24217 9.9206 3.96087 9.9206 3.61426L9.92009 2.00581H3.38986C2.21358 2.00581 1.25665 2.94767 1.25665 4.1047L1.25581 5.79419C2.31656 6.05456 3.07842 6.96377 3.07842 8.07642C3.07842 9.19995 2.30316 10.1477 1.25581 10.4231V12.0465C1.25581 13.2035 2.21274 14.1453 3.38902 14.1453H9.92009L9.9206 12.8992C9.9206 12.5517 10.2019 12.2713 10.5485 12.2713C10.8951 12.2713 11.1764 12.5517 11.1764 12.8992L11.1759 14.1453H14.611C15.7873 14.1453 16.7442 13.2035 16.7442 12.0465V10.4231C15.6968 10.1477 14.9216 9.19995 14.9216 8.07642C14.9216 6.95205 15.696 6.00516 16.7442 5.72972L16.7433 4.1047C16.7433 2.94767 15.7864 2.00581 14.6101 2.00581ZM10.5485 5.35842C10.8951 5.35842 11.1764 5.63972 11.1764 5.98633V10.0225C11.1764 10.3691 10.8951 10.6504 10.5485 10.6504C10.2019 10.6504 9.9206 10.3691 9.9206 10.0225V5.98633C9.9206 5.63972 10.2019 5.35842 10.5485 5.35842Z" fill="#38D0B7"/>
</svg>
